<svg preserveAspectRatio="none" width="100%" height="100%" overflow="visible" style="display: block;" viewBox="0 0 18 18" fill="none" xmlns="http://www.w3.org/2000/svg">
<g id="objects" clip-path="url(#clip0_0_4)">
<path id="Vector" d="M18 9.00023C18 13.971 13.9706 18.0005 8.99977 18.0005C4.02944 18 0 13.9706 0 9.00023C0 4.02944 4.02944 0 9.00023 0C13.971 0 18.0005 4.02944 18.0005 9.00023H18Z" fill="var(--fill-0, #FF5C00)"/>
<path id="Vector_2" d="M11.6666 8.3017L11.5166 9.50577C11.4913 9.70691 11.321 9.85821 11.1189 9.85821H9.16874V14.8924C8.96308 14.911 8.7547 14.9205 8.54405 14.9205C8.07293 14.9205 7.61314 14.8734 7.16874 14.7837V9.85821H5.66886C5.53114 9.85821 5.4188 9.74541 5.4188 9.60725V8.10057C5.4188 7.9624 5.53114 7.8496 5.66886 7.8496H7.16874V5.59003C7.16874 4.2034 8.28811 3.0795 9.66931 3.0795H11.4193C11.557 3.0795 11.6693 3.1923 11.6693 3.33046V4.83715C11.6693 4.97531 11.557 5.08811 11.4193 5.08811H10.169C9.61676 5.08811 9.1692 5.53749 9.1692 6.09241V7.85006H11.2693C11.5103 7.85006 11.6965 8.06206 11.667 8.30215L11.6666 8.3017Z" fill="var(--fill-0, white)"/>
</g>
<defs>
<clipPath id="clip0_0_4">
<rect width="18" height="18" fill="white"/>
</clipPath>
</defs>
</svg>
