<svg preserveAspectRatio="none" width="100%" height="100%" overflow="visible" style="display: block;" viewBox="0 0 9.6244 11.0429" fill="none" xmlns="http://www.w3.org/2000/svg">
<g id="Group">
<path id="Vector" d="M9.61923 2.76498C8.99309 2.76498 8.41537 2.55588 7.95144 2.20313C7.41937 1.79875 7.03708 1.20558 6.90208 0.52189C6.86866 0.352967 6.85066 0.178644 6.84894 0H5.0603V4.92685L5.05816 7.62552C5.05816 8.347 4.59209 8.95875 3.94601 9.1739C3.75851 9.23633 3.55601 9.26593 3.34516 9.25426C3.07601 9.23936 2.8238 9.15749 2.60458 9.02529C2.13808 8.74404 1.8218 8.23381 1.81323 7.65014C1.79973 6.73791 2.5313 5.99418 3.43559 5.99418C3.61409 5.99418 3.78551 6.02355 3.94601 6.07691V4.73028V4.24619C3.77673 4.22092 3.60444 4.20774 3.43023 4.20774C2.44044 4.20774 1.51473 4.62249 0.853014 5.36968C0.352871 5.93434 0.0528706 6.65475 0.00658487 7.41015C-0.054058 8.40252 0.306156 9.34585 1.00473 10.0419C1.10737 10.144 1.21516 10.2389 1.32787 10.3263C1.9268 10.791 2.65901 11.0429 3.43023 11.0429C3.60444 11.0429 3.77673 11.0299 3.94601 11.0046C4.66644 10.897 5.33116 10.5646 5.85573 10.0419C6.5003 9.39964 6.85644 8.54703 6.8603 7.63956L6.85109 3.6096C7.15859 3.84872 7.4948 4.04659 7.85566 4.20018C8.41687 4.43888 9.01194 4.55984 9.62437 4.55963V3.25037V2.76455C9.6248 2.76498 9.61966 2.76498 9.61923 2.76498Z" fill="var(--fill-0, #FFF8F8)"/>
</g>
</svg>
