<svg preserveAspectRatio="none" width="100%" height="100%" overflow="visible" style="display: block;" viewBox="0 0 17 16.7357" fill="none" xmlns="http://www.w3.org/2000/svg">
<g id="objects" clip-path="url(#clip0_0_4)">
<path id="Vector" d="M17 8.36806C17 12.9897 13.1944 16.7361 8.49979 16.7361C3.80559 16.7357 0 12.9893 0 8.36806C0 3.74642 3.80559 0 8.50021 0C13.1948 0 17.0004 3.74642 17.0004 8.36806H17Z" fill="var(--fill-0, #FF5C00)"/>
<path id="Vector_2" d="M10.8062 3.97849H6.19376C5.00523 3.97849 4.04132 4.92742 4.04132 6.09746V10.6382C4.04132 11.8083 5.00523 12.7572 6.19376 12.7572H10.8062C11.9948 12.7572 12.9587 11.8083 12.9587 10.6382V6.09746C12.9587 4.92742 11.9948 3.97849 10.8062 3.97849ZM12.1899 10.487C12.1899 11.3227 11.501 12.0008 10.6522 12.0008H6.34735C5.49853 12.0008 4.80971 11.3227 4.80971 10.487V6.24909C4.80971 5.41346 5.49853 4.73536 6.34735 4.73536H10.6522C11.501 4.73536 12.1899 5.41346 12.1899 6.24909V10.487Z" fill="var(--fill-0, white)"/>
<path id="Vector_3" d="M8.50449 6.09746C7.23169 6.09746 6.19847 7.11462 6.19847 8.36764C6.19847 9.62066 7.23169 10.6378 8.50449 10.6378C9.7773 10.6378 10.8105 9.62066 10.8105 8.36764C10.8105 7.11462 9.7773 6.09746 8.50449 6.09746ZM8.50449 9.88137C7.65738 9.88137 6.96686 9.20158 6.96686 8.36764C6.96686 7.5337 7.65738 6.85391 8.50449 6.85391C9.3516 6.85391 10.0421 7.5337 10.0421 8.36764C10.0421 9.20158 9.3516 9.88137 8.50449 9.88137Z" fill="var(--fill-0, white)"/>
<path id="Vector_4" d="M10.9645 6.40029C10.7104 6.40029 10.5033 6.19644 10.5033 5.94626C10.5033 5.69608 10.7104 5.49222 10.9645 5.49222C11.2187 5.49222 11.4257 5.69608 11.4257 5.94626C11.4257 6.19644 11.2187 6.40029 10.9645 6.40029Z" fill="var(--fill-0, white)"/>
</g>
<defs>
<clipPath id="clip0_0_4">
<rect width="17" height="16.7357" fill="white"/>
</clipPath>
</defs>
</svg>
